HIERARCHY
ROOT pelvis
{
  OFFSET 0 100 0
  CHANNELS 6 Xposition Yposition Zposition Zrotation Xrotation Yrotation
  JOINT pelvis_right_femur
  {
    OFFSET -10.78128 -3.44521 -0.5502486
    CHANNELS 3 Zrotation Xrotation Yrotation
    JOINT right_femur_tibia
    {
      OFFSET -0.8047443 -44.0398 -0.1307829
      CHANNELS 3 Zrotation Xrotation Yrotation
      JOINT right_tibia_foot
      {
        OFFSET 3.006224 -47.83518 -5
        CHANNELS 3 Zrotation Xrotation Yrotation
        End Site
        {
          OFFSET 0 -5 15
        }
      }
    }
  }
  JOINT pelvis_left_femur
  {
    OFFSET 10.78128 -3.44521 -0.5502486
    CHANNELS 3 Zrotation Xrotation Yrotation
    JOINT left_femur_tibia
    {
      OFFSET 0.8047443 -44.0398 -0.1307829
      CHANNELS 3 Zrotation Xrotation Yrotation
      JOINT left_tibia_foot
      {
        OFFSET -4.370144 -48.10324 -4.275266
        CHANNELS 3 Zrotation Xrotation Yrotation
        End Site
        {
          OFFSET 0 -5 15
        }
      }
    }
  }
  JOINT pelvis_spine1
  {
    OFFSET 0 6.468898 -3.129235
    CHANNELS 3 Zrotation Xrotation Yrotation
    JOINT spine1
    {
      OFFSET 0 23.15396 4.99043
      CHANNELS 3 Zrotation Xrotation Yrotation
      JOINT spine2
      {
        OFFSET 0 20.79997 -5.064912
        CHANNELS 3 Zrotation Xrotation Yrotation
        JOINT neck
        {
          OFFSET 0 14.38658 9.616178
          CHANNELS 3 Zrotation Xrotation Yrotation
          End Site
          {
            OFFSET 0 20 0
          }
        }
      }
      JOINT right_manubrium
      {
        OFFSET -5.722621 16.35077 3.967754
        CHANNELS 3 Zrotation Xrotation Yrotation
        JOINT right_clavicle
        {
          OFFSET -13.16364 1.694482 -4.693211
          CHANNELS 3 Zrotation Xrotation Yrotation
          JOINT right_humerus
          {
            OFFSET -28.5034 -0.3100689 -2.792744
            CHANNELS 3 Zrotation Xrotation Yrotation
            JOINT right_radius
            {
              OFFSET -25.15693 0.02248979 -1.271978
              CHANNELS 3 Zrotation Xrotation Yrotation
              End Site
              {
                OFFSET -15 0 0
              }
            }
          }
        }
      }
      JOINT left_manubrium
      {
        OFFSET 5.722621 16.35077 3.967754
        CHANNELS 3 Zrotation Xrotation Yrotation
        JOINT left_clavicle
        {
          OFFSET 13.16364 1.694482 -4.693211
          CHANNELS 3 Zrotation Xrotation Yrotation
          JOINT left_humerus
          {
            OFFSET 29.39168 -1.063119 -2.237045
            CHANNELS 3 Zrotation Xrotation Yrotation
            JOINT left_radius
            {
              OFFSET 24.59957 -0.9528479 0.9047498
              CHANNELS 3 Zrotation Xrotation Yrotation
              End Site
              {
                OFFSET 15 -0 -0
              }
            }
          }
        }
      }
    }
  }
}
MOTION
Frames: 16
Frame Time: 0.0416666666667
26.12065 105.412 233.822 1.260037 -6.627671 1.71096 1.007489 10.81625 6.587601 2.701127e-09 32.42993 1.733301e-09 3.516309 -12.62532 -3.930541 -1.097116 -17.80074 -6.39475 -6.648436e-09 19.1387 8.473076e-10 -5.605633 -10.21819 19.3607 -2.031975 -0.3380566 7.574337 -0.5337993 9.601742 -4.309269 1.901836 21.45311 5.965463 1.783156 -16.7631 7.814657 2.974382 -20.68021 11.50792 81.38093 26.04577 -7.446652 -3.828186e-10 4.663819e-10 24.54827 -25.64907 15.13928 14.20803 4.756147 -16.17079 -1.410497 -92.88033 21.24074 23.45702 -1.42099e-09 -6.738003e-10 -9.60628 -2.212631 7.566931 14.72049
27.29252 105.6229 239.75 1.416206 -7.071306 1.851053 0.5743281 9.336761 6.824053 2.812259e-09 39.21425 1.623218e-09 3.584035 -10.03325 -4.540724 -2.181714 -15.02667 -7.429063 -7.034047e-09 20.58554 1.563945e-09 -5.513331 -10.49232 19.32765 -2.265154 -0.3098951 7.126982 -0.6469103 9.640004 -4.3323 1.970008 21.61844 6.117713 1.849894 -16.67106 8.024243 3.31633 -19.87197 11.3992 81.70127 26.17785 -8.047961 -3.973024e-10 4.18343e-10 23.30666 -25.32328 14.87474 13.80557 4.517388 -15.9057 -1.570489 -92.14709 21.72935 22.53948 -1.690643e-09 -7.342281e-10 -9.042977 -2.205478 7.578887 14.7769
28.44383 106.2561 245.5122 1.621856 -7.626217 2.216173 0.1917778 6.256894 7.116163 2.981099e-09 46.4253 1.716193e-09 3.780989 -7.588978 -5.504816 -3.45542 -10.51593 -8.807926 -8.553046e-09 21.15346 3.210246e-09 -5.22144 -11.38277 19.36415 -2.541215 -0.306355 6.487669 -0.6982978 9.67527 -4.52777 2.091051 21.83311 6.251094 1.843719 -16.52288 8.351937 3.626405 -18.94492 11.23055 82.60706 26.14219 -9.267957 -4.8113e-10 3.540345e-10 21.86575 -24.63882 14.67187 13.09146 4.373201 -15.80667 -1.857624 -91.28458 22.38123 21.08837 -2.036798e-09 -8.648979e-10 -8.991426 -2.157649 7.747145 14.76304
29.54089 107.1598 250.9936 1.797112 -8.056883 2.747895 0.05670593 2.054799 7.346918 3.03099e-09 51.60458 1.982053e-09 3.855945 -6.07637 -6.538585 -4.538185 -5.124256 -10.24053 -1.059717e-08 20.80512 5.347406e-09 -4.756901 -12.65534 19.41523 -2.763231 -0.3156712 5.743892 -0.631841 9.598937 -4.840683 2.243864 21.99462 6.284937 1.751432 -16.33834 8.6892 3.801243 -17.98249 10.97288 83.49678 25.9531 -10.7547 -5.968995e-10 2.97061e-10 20.33394 -23.37134 14.42278 12.01472 4.364873 -15.84844 -2.167695 -90.09406 23.14134 19.21323 -2.29757e-09 -1.008858e-09 -9.474189 -1.998896 8.143971 14.52956
30.55595 108.1209 256.2173 1.906422 -8.224446 3.375017 0.1899286 -2.857981 7.307279 2.863582e-09 53.55992 2.280174e-09 3.728222 -5.348992 -7.435944 -5.254182 0.3709807 -11.38882 -1.227445e-08 19.7003 7.237682e-09 -4.268708 -14.20567 19.3451 -2.900312 -0.329095 4.985933 -0.450279 9.447367 -5.265872 2.37998 22.12824 6.277119 1.643205 -16.21898 8.979137 3.805166 -17.09675 10.70723 84.54646 25.70473 -12.46855 -6.994355e-10 2.446471e-10 18.77484 -22.01285 14.17875 10.89799 4.573832 -16.19529 -2.465738 -88.82665 23.73917 17.00294 -2.397664e-09 -1.092029e-09 -10.69204 -1.617379 8.698696 13.98403
31.48255 108.8758 261.2964 1.937147 -8.033456 4.025401 0.4672142 -7.779133 6.896981 2.497333e-09 51.63174 2.400918e-09 3.431264 -5.410433 -8.009244 -5.546069 5.061467 -12.05924 -1.283702e-08 17.46182 8.230037e-09 -3.890541 -15.93714 19.11238 -2.961363 -0.3152332 4.301762 -0.1917994 9.168374 -5.720057 2.47413 22.22127 6.255239 1.549708 -16.15772 9.179246 3.606741 -16.36236 10.44679 85.51972 25.46151 -14.06504 -7.480795e-10 1.993427e-10 17.36398 -20.9257 13.94438 10.01326 5.034138 -16.79054 -2.665841 -87.55336 24.04502 14.58632 -2.264388e-09 -1.066687e-09 -12.54105 -1.034633 9.283353 13.14637
32.29351 109.2314 266.3016 1.857783 -7.542625 4.624153 0.8891352 -12.63172 6.221106 1.987744e-09 46.30743 2.282834e-09 2.863653 -6.164637 -8.300391 -5.515556 9.054251 -12.37937 -1.242837e-08 14.97148 8.585761e-09 -3.674364 -17.64899 18.68663 -2.922995 -0.2602248 3.664201 0.1392205 8.743025 -6.16571 2.543234 22.26355 6.18722 1.46441 -16.12052 9.27847 3.248834 -15.64201 10.16505 86.1927 25.25554 -15.51137 -7.385871e-10 1.691348e-10 15.90888 -19.85764 13.63871 9.192686 5.664895 -17.5231 -2.750846 -86.08861 24.14855 11.92165 -1.904518e-09 -9.590075e-10 -14.80314 -0.2645979 9.913158 12.01928
32.98663 109.0922 271.4398 1.711391 -6.869491 5.143107 1.28234 -17.05871 5.225028 1.351239e-09 38.79096 1.766531e-09 2.241715 -6.920178 -8.379102 -5.292715 12.09238 -12.19242 -1.080996e-08 13.01656 8.157458e-09 -3.896056 -19.28112 17.99202 -2.830972 -0.1193304 3.113375 0.4730664 8.25156 -6.582284 2.582127 22.40794 6.177861 1.453821 -16.14219 9.324334 2.818176 -14.90157 9.948222 87.12994 25.18613 -16.92726 -6.49995e-10 1.483243e-10 14.37225 -19.41016 13.4106 8.744099 6.463843 -18.43578 -2.711165 -84.92663 23.97167 9.071919 -1.369318e-09 -7.630234e-10 -17.42866 0.6261956 10.40744 10.76113
33.53298 108.453 276.6553 1.492704 -6.161238 5.542531 1.73297 -20.99069 4.303405 6.288403e-10 30.57186 1.124396e-09 1.368443 -8.053585 -8.345584 -4.982552 14.63885 -12.03434 -8.970364e-09 11.79857 7.727252e-09 -4.18535 -20.59429 17.30238 -2.674127 0.0477302 2.598829 0.8160408 7.679174 -6.90552 2.635452 22.53505 6.094278 1.430276 -16.15048 9.316806 2.372107 -14.11517 9.703835 87.62298 25.17006 -18.078 -5.322681e-10 1.472358e-10 12.78224 -18.64728 13.01477 8.156601 7.212299 -19.20404 -2.585536 -83.67022 23.84176 6.339886 -7.388888e-10 -5.804336e-10 -19.76204 1.53873 10.97166 9.443446
33.92912 107.4291 281.9474 1.260064 -5.55119 5.824941 2.145895 -24.09332 3.48775 -1.284621e-10 23.30091 3.721379e-10 0.4015702 -8.926569 -8.259998 -4.698478 16.5876 -11.87151 -6.958596e-09 11.865 7.225023e-09 -4.586636 -21.46871 16.63316 -2.495876 0.2326415 2.153215 1.107889 7.148528 -7.121332 2.691543 22.70606 6.00666 1.438534 -16.17976 9.283676 2.003424 -13.31526 9.4976 87.97659 25.24145 -19.01601 -3.904542e-10 1.55058e-10 11.17554 -17.91283 12.54621 7.609659 7.832072 -19.81716 -2.422507 -82.60716 23.73122 3.946126 -1.198589e-10 -4.141353e-10 -21.5995 2.404556 11.49976 8.217699
34.19195 106.2456 287.3163 1.075126 -5.22747 6.016323 2.507356 -26.14087 2.945757 -7.705748e-10 18.67301 -3.087823e-10 -0.5045082 -9.204463 -8.240921 -4.54209 18.03219 -11.78181 -5.264606e-09 13.77713 6.866354e-09 -5.072731 -21.78494 16.08239 -2.324147 0.4174 1.80275 1.303977 6.777204 -7.226554 2.761494 22.95999 5.935267 1.478637 -16.22176 9.263883 1.795036 -12.54422 9.37012 88.42202 25.35133 -19.80226 -2.560196e-10 1.715421e-10 9.64685 -17.29895 12.09543 7.123692 8.210529 -20.22171 -2.291207 -81.9617 23.72375 2.140988 3.488226e-10 -2.901283e-10 -22.69603 3.09449 11.94023 7.282505
34.38252 105.2056 292.816 1.013238 -5.318021 6.180351 2.70942 -26.83642 2.712593 -1.134838e-09 18.19233 -7.829253e-10 -1.129656 -8.433625 -8.326422 -4.613489 18.87435 -11.74693 -4.068243e-09 17.52151 6.60806e-09 -5.629718 -21.53507 15.73435 -2.217045 0.5892185 1.587627 1.345891 6.673723 -7.216582 2.83774 23.346 5.941682 1.57435 -16.29008 9.297517 1.810673 -11.89425 9.371349 89.25428 25.47321 -20.4469 -1.465839e-10 1.888364e-10 8.362749 -17.14055 11.79457 6.877344 8.289491 -20.40546 -2.243469 -82.04109 23.83917 1.177263 5.554011e-10 -2.051358e-10 -22.88793 3.4938 12.20002 6.826911
34.53647 104.5622 298.3658 1.004299 -5.743042 6.309018 2.984942 -26.03359 2.891455 -1.186404e-09 20.44917 -9.282047e-10 -1.775733 -7.396281 -8.407475 -4.7435 18.8705 -11.85309 -3.685875e-09 22.93308 6.689944e-09 -6.020155 -20.50961 15.66503 -2.081958 0.6981702 1.539454 1.289067 6.801113 -7.063833 2.921139 23.69741 5.891507 1.663475 -16.35131 9.290749 1.946097 -11.47197 9.443977 89.79768 25.51291 -20.69881 -7.554176e-11 2.229115e-10 7.448843 -16.86839 11.49379 6.60382 8.021232 -20.29836 -2.28515 -82.45217 24.07009 1.244674 5.545798e-10 -1.787938e-10 -22.05297 3.676133 12.44721 6.691904
34.66105 104.4549 303.9415 0.9773512 -6.384146 6.333884 3.471836 -23.68587 3.361948 -1.080159e-09 23.1961 -9.167872e-10 -2.580097 -6.743773 -8.409126 -4.750742 17.57747 -11.88815 -3.757611e-09 30.32375 6.958437e-09 -6.467389 -18.70246 15.79428 -1.841498 0.7972372 1.71153 1.183733 7.07631 -6.775024 3.023124 24.08711 5.750442 1.740656 -16.4305 9.219492 2.103092 -11.29665 9.607902 90.23747 25.51007 -20.60579 -8.574707e-12 2.954333e-10 6.918535 -16.53659 11.2263 6.339519 7.53921 -20.02847 -2.32771 -83.44325 24.3941 2.246468 4.891779e-10 -1.866378e-10 -20.52314 3.702152 12.72302 6.780799
34.74609 104.8621 309.3996 0.8968338 -7.105147 6.16964 4.126572 -19.81183 4.089806 -8.752431e-10 25.21754 -7.481783e-10 -3.617831 -7.305656 -8.269063 -4.526828 14.85538 -12.00067 -4.435733e-09 37.92528 7.595159e-09 -6.755896 -16.33983 16.29197 -1.508524 0.8748871 2.099794 1.058873 7.346925 -6.311979 3.156572 24.40716 5.439521 1.735944 -16.46581 9.067882 2.181041 -11.4733 9.77227 89.99454 25.4439 -19.82359 4.832677e-11 4.137992e-10 7.039132 -15.79419 10.84488 5.980326 6.902362 -19.47125 -2.309784 -84.74158 24.85805 4.203746 4.552156e-10 -2.37519e-10 -18.25897 3.557162 13.13479 7.030489
34.78891 105.63 314.6803 0.7613968 -7.725904 5.774926 4.726484 -15.19503 4.715172 -7.146237e-10 25.73654 -6.07612e-10 -4.745383 -8.783185 -7.972331 -4.120295 11.16106 -12.05522 -5.005503e-09 44.05279 8.078767e-09 -6.912382 -13.97139 16.99664 -1.160127 0.9460301 2.604344 0.9286705 7.530331 -5.753481 3.291296 24.65459 5.049621 1.682154 -16.46701 8.864485 2.121101 -11.93732 9.908409 89.27105 25.31471 -18.51284 1.125438e-10 5.470381e-10 7.681986 -14.99793 10.3985 5.725689 6.310608 -18.80452 -2.216879 -86.18076 25.26264 6.593463 5.294127e-10 -2.787934e-10 -15.80063 3.376208 13.61485 7.26759
